<svg width="35" height="34" viewBox="0 0 35 34" fill="none" xmlns="http://www.w3.org/2000/svg">
<path d="M8.83677 33.2485C12.5045 32.8412 15.1973 29.986 14.8515 26.871C14.5056 23.7561 11.252 21.5611 7.58435 21.9683C3.91666 22.3755 1.22379 25.2308 1.56963 28.3457C1.91548 31.4606 5.16909 33.6557 8.83677 33.2485Z" fill="black"/>
<path d="M28.3599 30.9399C31.9603 30.1305 34.3217 26.9956 33.6343 23.9379C32.947 20.8801 29.471 19.0574 25.8707 19.8668C22.2703 20.6761 19.9089 23.811 20.5962 26.8688C21.2836 29.9265 24.7595 31.7492 28.3599 30.9399Z" fill="black"/>
<path d="M14.9256 7.67011H12.0908V27.6522H14.9256V7.67011Z" fill="black"/>
<path d="M33.7063 7.22923H30.8951V25.2899H33.7063V7.22923Z" fill="black"/>
<path d="M33.1514 0.994581L12.4386 1.87765L12.554 9.17007L33.2668 8.287L33.1514 0.994581Z" fill="black" stroke="black" stroke-width="0.925876" stroke-linejoin="round"/>
</svg>
